<svg xmlns="http://www.w3.org/2000/svg" xmlns:xlink="http://www.w3.org/1999/xlink" width="105.129" height="12.061" viewBox="0 0 105.129 12.061">
  <defs>
    <clipPath id="clip-path">
      <path id="Path_4614" data-name="Path 4614" d="M138.549,84.19a2.839,2.839,0,0,0-2.792,2.34l-1.193,6.356a2.843,2.843,0,0,0,2.792,3.365H235.6a2.843,2.843,0,0,0,2.792-2.32l1.209-6.375A2.843,2.843,0,0,0,236.8,84.19Z" transform="translate(-134.516 -84.19)" fill="none"/>
    </clipPath>
    <linearGradient id="linear-gradient" x1="-11.511" y1="43.551" x2="-11.507" y2="43.551" gradientUnits="objectBoundingBox">
      <stop offset="0" stop-color="#a31919"/>
      <stop offset="1" stop-color="#ff1c21"/>
    </linearGradient>
  </defs>
  <g id="Group_852" data-name="Group 852" transform="translate(-105.871 -64.351)">
    <g id="Group_837" data-name="Group 837" transform="translate(105.871 64.351)" clip-path="url(#clip-path)">
      <rect id="Rectangle_3996" data-name="Rectangle 3996" width="105.668" height="12.037" transform="translate(-0.279 0)" fill="url(#linear-gradient)"/>
    </g>
    <path id="Path_4627" data-name="Path 4627" d="M147.3,91l-1.447,4.395h-2.948c-1.213,0-1.685-.983-1.068-2.2a4.177,4.177,0,0,1,3.314-2.2Zm-2.5,2.827.417-1.263h-.885a1.224,1.224,0,0,0-.944.628c-.172.339-.035.628.3.628Zm-.289-4.246a1.5,1.5,0,0,1,1.17-.78.437.437,0,0,1,.472.335,1.31,1.31,0,0,1,.78-.324c.433,0,.608.351.39.78a1.486,1.486,0,0,1-1.17.78.433.433,0,0,1-.472-.328,1.338,1.338,0,0,1-.78.316c-.437,0-.608-.347-.39-.78" transform="translate(-32.577 -22.648)" fill="#ebebeb"/>
    <path id="Path_4628" data-name="Path 4628" d="M207.987,146.164l-.523,1.571-3.685-.008-.23-1.568Z" transform="translate(-90.548 -74.993)" fill="#ebebeb"/>
    <path id="Path_4629" data-name="Path 4629" d="M215.037,146.164l-.523,1.571-3.689-.008-.226-1.568Z" transform="translate(-94.859 -74.993)" fill="#ebebeb"/>
    <path id="Path_4630" data-name="Path 4630" d="M217.207,146.164l-.523,1.571L213,147.728l-.226-1.568Z" transform="translate(-96.187 -74.993)" fill="#ebebeb"/>
    <path id="Path_4631" data-name="Path 4631" d="M227.254,146.164l-.519,1.571-3.689-.008-.226-1.568Z" transform="translate(-102.333 -74.993)" fill="#ebebeb"/>
    <path id="Path_4632" data-name="Path 4632" d="M176.662,98.859h-.253l-.226-1.56h1l.928-2.819h1.56l-1.447,4.391Zm.7,1.248a1.493,1.493,0,0,1-1.17.78.429.429,0,0,1-.484-.367,1.361,1.361,0,0,1-.831.351c-.433,0-.6-.351-.39-.78a1.49,1.49,0,0,1,1.17-.78.429.429,0,0,1,.476.39,1.361,1.361,0,0,1,.834-.355c.433,0,.608.355.39.78" transform="translate(-52.651 -26.117)" fill="#ebebeb"/>
    <path id="Path_4633" data-name="Path 4633" d="M240.42,133.75l-2.125,6.414H236.7l2.125-6.414Z" transform="translate(-110.82 -67.422)" fill="#ebebeb"/>
    <path id="Path_4634" data-name="Path 4634" d="M192.5,94.44h1.9c1.084,0,1.583.78,1.24,1.821l-.854,2.574H190.18l.523-1.56h3.018l.246-.733a.359.359,0,0,0-.347-.523h-1.634Z" transform="translate(-62.306 -26.092)" fill="#ebebeb"/>
    <path id="Path_4635" data-name="Path 4635" d="M257.454,146.164l-.523,1.571-3.685-.008-.226-1.568Z" transform="translate(-120.801 -74.993)" fill="#ebebeb"/>
    <path id="Path_4636" data-name="Path 4636" d="M264.5,146.164l-.523,1.571-3.685-.008-.23-1.568Z" transform="translate(-125.107 -74.993)" fill="#ebebeb"/>
    <path id="Path_4637" data-name="Path 4637" d="M271.547,146.164l-.522,1.571-3.689-.008-.226-1.568Z" transform="translate(-129.418 -74.993)" fill="#ebebeb"/>
    <path id="Path_4638" data-name="Path 4638" d="M224.3,100.173a1.505,1.505,0,0,1-1.17.78c-.437,0-.608-.351-.39-.78a1.486,1.486,0,0,1,1.17-.78c.429,0,.6.351.39.78m.636-1.314H223.12l-.23-1.56h1l.928-2.819h1.56Z" transform="translate(-82.158 -26.117)" fill="#ebebeb"/>
    <path id="Path_4639" data-name="Path 4639" d="M284.579,133.75l-2.125,6.414h-1.595l0-.008h-.207l-.226-1.568h.948l1.607-4.839Z" transform="translate(-137.563 -67.422)" fill="#ebebeb"/>
    <path id="Path_4640" data-name="Path 4640" d="M290.15,133.75l-2.121,6.414h-1.6l2.125-6.414Z" transform="translate(-141.231 -67.422)" fill="#ebebeb"/>
    <path id="Path_4641" data-name="Path 4641" d="M250.328,95.986a.214.214,0,0,0-.179.136l-.9,2.687h-4.141c-1.209,0-1.685-.983-1.068-2.2a4.2,4.2,0,0,1,3.314-2.2h.94l-.519,1.56H246.55a1.236,1.236,0,0,0-.944.628c-.172.339-.031.62.3.628h2.281l.425-1.271a2.1,2.1,0,0,1,2.078-1.56h2.074l-1.454,4.395h-1.56l.932-2.823Zm-2.671,4.106a1.493,1.493,0,0,1-1.17.78.425.425,0,0,1-.48-.367,1.361,1.361,0,0,1-.831.351c-.437,0-.608-.351-.39-.78a1.5,1.5,0,0,1,1.17-.78.421.421,0,0,1,.472.37,1.373,1.373,0,0,1,.838-.355c.433,0,.6.355.39.78" transform="translate(-95.088 -26.067)" fill="#ebebeb"/>
    <path id="Path_4642" data-name="Path 4642" d="M318.544,146.164l-.523,1.571-3.685-.008-.226-1.568Z" transform="translate(-158.161 -74.993)" fill="#ebebeb"/>
    <path id="Path_4643" data-name="Path 4643" d="M325.587,146.164l-.522,1.571-3.689-.008-.226-1.568Z" transform="translate(-162.466 -74.993)" fill="#ebebeb"/>
    <path id="Path_4644" data-name="Path 4644" d="M282.965,94.44c1.217,0,1.7.987,1.076,2.2a4.177,4.177,0,0,1-3.3,2.2h-2.932l-.226-1.56h1.17a1.6,1.6,0,0,1,.164-.5,2.64,2.64,0,0,1,.6-.756H279.3l.522-1.56Zm-2.215,2.34c.113-.226.027-.39-.2-.39a.78.78,0,0,0-.612.39c-.113.226-.027.39.2.39a.78.78,0,0,0,.612-.39m.78.5a1.221,1.221,0,0,0,.94-.628c.172-.335.035-.624-.3-.628h-.23a1.419,1.419,0,0,1-.172.756,2.474,2.474,0,0,1-.343.5Z" transform="translate(-115.76 -26.092)" fill="#ebebeb"/>
    <path id="Path_4645" data-name="Path 4645" d="M301.094,101.84a1.8,1.8,0,0,1,1.419-.94c.511,0,.721.425.46.94a1.805,1.805,0,0,1-1.415.936c-.515,0-.725-.425-.464-.936" transform="translate(-130.058 -30.033)" fill="#ebebeb"/>
    <path id="Path_4646" data-name="Path 4646" d="M306.684,101.84a1.8,1.8,0,0,1,1.415-.94c.515,0,.725.425.464.94a1.805,1.805,0,0,1-1.419.936c-.511,0-.721-.425-.46-.936" transform="translate(-133.476 -30.033)" fill="#ebebeb"/>
    <path id="Path_4647" data-name="Path 4647" d="M312.273,101.84a1.8,1.8,0,0,1,1.415-.94c.515,0,.721.425.46.94a1.794,1.794,0,0,1-1.415.936c-.515,0-.721-.425-.46-.936" transform="translate(-136.894 -30.033)" fill="#ebebeb"/>
    <path id="Path_4648" data-name="Path 4648" d="M332.721,91l-1.451,4.395h-2.96c-1.213,0-1.688-.983-1.072-2.2a4.183,4.183,0,0,1,3.318-2.2Zm-2.5,2.827.417-1.263h-.885a1.22,1.22,0,0,0-.944.628c-.172.339-.035.628.3.628Zm-.292-4.246a1.509,1.509,0,0,1,1.17-.78.437.437,0,0,1,.472.335,1.33,1.33,0,0,1,.78-.324c.433,0,.6.351.39.78a1.49,1.49,0,0,1-1.17.78.429.429,0,0,1-.46-.324,1.338,1.338,0,0,1-.78.316c-.433,0-.608-.347-.39-.78" transform="translate(-146.055 -22.648)" fill="#ebebeb"/>
    <path id="Path_4649" data-name="Path 4649" d="M393.437,146.164l-.523,1.571-3.689-.008L389,146.16Z" transform="translate(-204.041 -74.993)" fill="#ebebeb"/>
    <path id="Path_4650" data-name="Path 4650" d="M343.157,98.859H342.9l-.23-1.56h1l.928-2.819h1.56l-1.447,4.391Zm.893,1.248a1.493,1.493,0,0,1-1.17.78.429.429,0,0,1-.484-.367,1.361,1.361,0,0,1-.831.351c-.433,0-.6-.351-.39-.78a1.49,1.49,0,0,1,1.17-.78.425.425,0,0,1,.476.39,1.361,1.361,0,0,1,.834-.355c.433,0,.608.355.39.78" transform="translate(-154.665 -26.117)" fill="#ebebeb"/>
    <path id="Path_4651" data-name="Path 4651" d="M406.35,133.75l-2.121,6.414h-1.6l2.125-6.414Z" transform="translate(-212.357 -67.422)" fill="#ebebeb"/>
    <path id="Path_4652" data-name="Path 4652" d="M410.5,146.164l-.523,1.571-3.685-.008-.23-1.568Z" transform="translate(-214.449 -74.993)" fill="#ebebeb"/>
    <path id="Path_4653" data-name="Path 4653" d="M364.691,91.28l-1.451,4.395h-1.817l-.226-1.56h1l.928-2.823ZM363.5,90.06a1.482,1.482,0,0,1-1.17.78.433.433,0,0,1-.483-.363,1.353,1.353,0,0,1-.827.347c-.437,0-.608-.347-.39-.78a1.5,1.5,0,0,1,1.17-.78.425.425,0,0,1,.476.367,1.357,1.357,0,0,1,.838-.351c.429,0,.6.351.39.78" transform="translate(-166.533 -22.933)" fill="#ebebeb"/>
    <path id="Path_4654" data-name="Path 4654" d="M422.914,146.164l-.523,1.571-3.685-.008-.226-1.568Z" transform="translate(-222.026 -74.993)" fill="#ebebeb"/>
    <path id="Path_4655" data-name="Path 4655" d="M381.521,98.871H379.8L379.7,98.2a3.6,3.6,0,0,1-1.918.675h-2.8l-.226-1.56h3.817a1.213,1.213,0,0,0,.94-.624c.172-.339.039-.628-.3-.632h-3.139l.522-1.56h3.412c1.213,0,1.7.983,1.076,2.2a3.9,3.9,0,0,1-.39.62h1.357Z" transform="translate(-175.21 -26.129)" fill="#ebebeb"/>
    <path id="Path_4656" data-name="Path 4656" d="M392.534,91.3l-1.447,4.395h-1.821l-.226-1.56h1l.932-2.835ZM391.5,90.07a1.486,1.486,0,0,1,1.17-.78c.433,0,.6.351.39.78a1.489,1.489,0,0,1-1.17.78c-.437,0-.608-.347-.39-.78" transform="translate(-183.922 -22.951)" fill="#ebebeb"/>
  </g>
</svg>
